# xmcd CD database file generated by Grip 2.91
# 
# Track frame offsets:
#       150
#       13722
#       24645
#       38447
#       53460
#       68810
#       85767
#       98425
#       113910
#       129082
#       143555
#       157795
# 
# Disc length: 2273 seconds
# 
# Revision: 3
# Processed by: cddbd v1.4b41PL1 Copyright (c) Steve Scherf et al.
# Submitted via: Grip 2.91
# 
DISCID=7c08df0c
DTITLE=Various Artist - Mountain Orchestra Country Classics
DYEAR=1900
DGENRE=
TTITLE0=Forever and Ever Amen
TTITLE1=Hey Good Lookin'
TTITLE2=I Fall to Peices
TTITLE3=Arkansas Traveler
TTITLE4=Sixteen Tons
TTITLE5=Faded Love
TTITLE6=On The Road Again
TTITLE7=Blue Eyes Crying In the Rain
TTITLE8=Cotton-Eyed Joe
TTITLE9=Blue Kentucky Girl
TTITLE10=Anytime
TTITLE11=Tennessee Waltz
EXTD=
EXTT0=
EXTT1=
EXTT2=
EXTT3=
EXTT4=
EXTT5=
EXTT6=
EXTT7=
EXTT8=
EXTT9=
EXTT10=
EXTT11=
PLAYORDER=
